<svg width="100" height="100" viewBox="0 0 100 100" fill="none" xmlns="http://www.w3.org/2000/svg">
<path fill-rule="evenodd" clip-rule="evenodd" d="M0 50C0 77.6142 22.3858 100 50 100C77.6142 100 100 77.6142 100 50C100 22.3858 77.6142 0 50 0C22.3858 0 0 22.3858 0 50ZM81.3795 48.0866C81.3729 64.4757 68.0406 77.8112 51.6481 77.8178H51.6358C46.6599 77.8161 41.7705 76.5677 37.4279 74.199L21.6667 78.3334L25.8847 62.9269C23.2828 58.4179 21.9138 53.3032 21.916 48.0631C21.9225 31.6703 35.2601 18.3334 51.6478 18.3334C59.6014 18.3369 67.0663 21.4332 72.6796 27.053C78.293 32.6726 81.3827 40.1425 81.3795 48.0866Z" fill="white"/>
<path fill-rule="evenodd" clip-rule="evenodd" d="M28.8052 71.2698L38.1581 68.8163L39.0605 69.3519C42.8546 71.6034 47.2038 72.7947 51.6381 72.7965H51.6481C65.2685 72.7965 76.3541 61.7106 76.3595 48.0847C76.3621 41.4816 73.7941 35.273 69.1285 30.602C64.4629 25.9309 58.2584 23.3573 51.6579 23.355C38.027 23.355 26.9413 34.4397 26.9359 48.0646C26.9339 52.734 28.2404 57.2814 30.7141 61.2158L31.3017 62.1508L28.8052 71.2698ZM65.6093 54.4876C66.1274 54.738 66.4773 54.9071 66.6267 55.1565C66.8123 55.4662 66.8123 56.9536 66.1936 58.6892C65.5743 60.4245 62.6064 62.0083 61.179 62.2215C59.8992 62.4128 58.2795 62.4927 56.5 61.9271C55.421 61.5848 54.0373 61.1277 52.2649 60.3622C45.3004 57.355 40.5939 50.6049 39.7044 49.3292C39.642 49.2398 39.5985 49.1773 39.5741 49.1448L39.5681 49.1368C39.175 48.6123 36.5407 45.0975 36.5407 41.4599C36.5407 38.038 38.2216 36.2443 38.9954 35.4187C39.0484 35.3622 39.0971 35.3102 39.1408 35.2625C39.8217 34.5187 40.6266 34.3328 41.1218 34.3328C41.617 34.3328 42.1128 34.3374 42.5457 34.3591C42.5991 34.3618 42.6546 34.3615 42.712 34.3611C43.145 34.3586 43.6847 34.3554 44.2171 35.6343C44.4219 36.1265 44.7217 36.8562 45.0378 37.6258C45.677 39.1821 46.3833 40.9016 46.5076 41.1504C46.6933 41.5223 46.8171 41.9559 46.5695 42.452C46.5323 42.5263 46.498 42.5965 46.4651 42.6636C46.2791 43.0433 46.1423 43.3226 45.8266 43.6912C45.7025 43.8361 45.5742 43.9923 45.446 44.1485C45.1904 44.4598 44.9348 44.771 44.7123 44.9927C44.3404 45.3632 43.9532 45.7651 44.3866 46.5088C44.8199 47.2526 46.3109 49.6852 48.5193 51.6551C50.8933 53.7727 52.9567 54.6677 54.0025 55.1213C54.2068 55.2099 54.3722 55.2816 54.4936 55.3424C55.2362 55.7144 55.6695 55.6521 56.1029 55.1565C56.5363 54.6607 57.96 52.9872 58.4552 52.2436C58.9503 51.5001 59.4458 51.6239 60.1266 51.8717C60.8077 52.1199 64.4601 53.9169 65.203 54.2887C65.348 54.3613 65.4836 54.4268 65.6093 54.4876Z" fill="white"/>
</svg>
