<svg width="100" height="100" viewBox="0 0 100 100" fill="none" xmlns="http://www.w3.org/2000/svg">
<path fill-rule="evenodd" clip-rule="evenodd" d="M50 0C22.3858 0 0 22.3858 0 50C0 77.6142 22.3858 100 50 100C77.6142 100 100 77.6142 100 50C100 22.3858 77.6142 0 50 0ZM39.0069 23.4943C41.8508 23.3649 42.7599 23.3332 49.9984 23.3332C57.2391 23.3332 58.1448 23.3649 60.9888 23.4943C63.8277 23.6243 65.7666 24.0738 67.4666 24.7332C69.2222 25.4138 70.7055 26.3249 72.1889 27.8083C73.6722 29.2905 74.5833 30.7783 75.2667 32.5322C75.9222 34.2278 76.3722 36.1656 76.5056 39.0045C76.6334 41.849 76.6667 42.7579 76.6667 50.0002C76.6667 57.2425 76.6334 58.1491 76.5056 60.9936C76.3722 63.8314 75.9222 65.7698 75.2667 67.4659C74.5833 69.2193 73.6722 70.7071 72.1889 72.1893C70.7072 73.6726 69.2216 74.586 67.4683 75.2671C65.7716 75.9266 63.8316 76.376 60.9926 76.506C58.1482 76.6355 57.242 76.6671 49.9992 76.6671C42.7575 76.6671 41.8491 76.6355 39.0046 76.506C36.1663 76.376 34.2279 75.9266 32.5312 75.2671C30.7784 74.586 29.2906 73.6726 27.809 72.1893C26.3262 70.7071 25.415 69.2193 24.7334 67.4654C24.0745 65.7698 23.625 63.832 23.4945 60.9931C23.3656 58.1486 23.3334 57.2425 23.3334 50.0002C23.3334 42.7579 23.3667 41.8484 23.4939 39.0039C23.6217 36.1661 24.0717 34.2278 24.7328 32.5317C25.4162 30.7783 26.3273 29.2905 27.8106 27.8083C29.2929 26.3255 30.7807 25.4144 32.5346 24.7332C34.2301 24.0738 36.1679 23.6243 39.0069 23.4943ZM49.9984 23.3332C49.9998 23.3332 50.0011 23.3332 50.0025 23.3332H49.9942C49.9956 23.3332 49.997 23.3332 49.9984 23.3332Z" fill="white"/>
<path fill-rule="evenodd" clip-rule="evenodd" d="M47.6102 28.1387C48.0747 28.138 48.5744 28.1382 49.1137 28.1385L50.0025 28.1387C57.1226 28.1387 57.9665 28.1643 60.7782 28.2921C63.3782 28.411 64.7893 28.8454 65.7293 29.2104C66.9738 29.6938 67.861 30.2715 68.7938 31.2049C69.7271 32.1382 70.3049 33.0271 70.7894 34.2716C71.1544 35.2105 71.5894 36.6216 71.7077 39.2216C71.8355 42.0328 71.8633 42.8772 71.8633 49.994C71.8633 57.1107 71.8355 57.9552 71.7077 60.7663C71.5888 63.3663 71.1544 64.7775 70.7894 65.7164C70.306 66.9608 69.7271 67.8469 68.7938 68.7797C67.8604 69.7131 66.9743 70.2909 65.7293 70.7742C64.7904 71.1409 63.3782 71.5742 60.7782 71.6931C57.967 71.8209 57.1226 71.8486 50.0025 71.8486C42.8819 71.8486 42.038 71.8209 39.2268 71.6931C36.6268 71.5731 35.2157 71.1386 34.2751 70.7736C33.0306 70.2903 32.1417 69.7125 31.2084 68.7792C30.2751 67.8458 29.6973 66.9592 29.2128 65.7141C28.8478 64.7752 28.4128 63.3641 28.2945 60.7641C28.1667 57.9529 28.1411 57.1085 28.1411 49.9873C28.1411 42.8661 28.1667 42.0261 28.2945 39.215C28.4134 36.6149 28.8478 35.2038 29.2128 34.2638C29.6962 33.0194 30.2751 32.1305 31.2084 31.1971C32.1417 30.2638 33.0306 29.686 34.2751 29.2015C35.2151 28.8349 36.6268 28.4015 39.2268 28.2821C41.6868 28.171 42.6402 28.1376 47.6102 28.1321V28.1387ZM64.2371 32.5664C62.4704 32.5664 61.0371 33.9981 61.0371 35.7653C61.0371 37.532 62.4704 38.9654 64.2371 38.9654C66.0038 38.9654 67.4371 37.532 67.4371 35.7653C67.4371 33.9987 66.0038 32.5653 64.2371 32.5653V32.5664ZM36.3079 50.0003C36.3079 42.4375 42.4396 36.3057 50.0025 36.3057H50.0019C57.5648 36.3057 63.6949 42.4375 63.6949 50.0003C63.6949 57.5632 57.5653 63.6921 50.0025 63.6921C42.4396 63.6921 36.3079 57.5632 36.3079 50.0003Z" fill="white"/>
<path d="M50.0025 41.1113C54.9114 41.1113 58.8915 45.0908 58.8915 50.0003C58.8915 54.9092 54.9114 58.8893 50.0025 58.8893C45.093 58.8893 41.1135 54.9092 41.1135 50.0003C41.1135 45.0908 45.093 41.1113 50.0025 41.1113Z" fill="white"/>
</svg>
