<svg width="100" height="100" viewBox="0 0 100 100" fill="none" xmlns="http://www.w3.org/2000/svg">
<path fill-rule="evenodd" clip-rule="evenodd" d="M100 50C100 77.6142 77.6142 100 50 100C22.3858 100 0 77.6142 0 50C0 22.3858 22.3858 0 50 0C77.6142 0 100 22.3858 100 50ZM33.4823 45.4196C28.4736 47.6064 23.3272 49.8534 18.6214 52.4455L18.621 52.4459C16.1638 54.245 19.43 55.5175 22.4939 56.7112C22.981 56.9009 23.463 57.0887 23.916 57.2763C24.293 57.3922 24.6765 57.5143 25.065 57.6381C28.4726 58.7238 32.2724 59.9343 35.5806 58.1133C41.0151 54.9915 46.1437 51.3822 51.2684 47.7757C52.9474 46.5941 54.626 45.4129 56.3148 44.2491C56.3939 44.1985 56.4832 44.1406 56.5807 44.0773C58.0195 43.1448 61.2549 41.0475 60.0582 43.9374C57.228 47.0324 54.1967 49.7721 51.1488 52.5268C49.0948 54.3833 47.0332 56.2465 45.0207 58.2299C43.2678 59.654 41.4478 62.5181 43.4105 64.5124C47.931 67.677 52.5222 70.7649 57.1106 73.8511C58.6039 74.8554 60.097 75.8596 61.5871 76.8661C64.1126 78.8824 68.0594 77.2515 68.6146 74.1007C68.8616 72.6514 69.1095 71.2021 69.3574 69.7527C70.7273 61.7429 72.0978 53.7304 73.3084 45.6945C73.4729 44.434 73.6594 43.1735 73.8461 41.9124C74.2984 38.8559 74.7512 35.7958 74.8926 32.7228C74.528 29.6563 70.8099 30.3305 68.7405 31.0201C58.1047 35.0672 47.5751 39.4142 37.0872 43.838C35.8991 44.3643 34.6948 44.8902 33.4823 45.4196Z" fill="white"/>
</svg>
