<svg width="100" height="100" viewBox="0 0 100 100" fill="none" xmlns="http://www.w3.org/2000/svg">
<path fill-rule="evenodd" clip-rule="evenodd" d="M65.3493 0H34.6507C6.63373 0 0 6.63373 0 34.6507V65.3493C0 93.3663 6.63373 100 34.6507 100H65.3493C93.3663 100 100 93.3663 100 65.3493V34.6507C100 6.63373 93.3663 0 65.3493 0ZM79.6754 31.757C81.8632 31.757 82.3571 32.8861 81.8631 34.4387C81.0922 37.9969 74.69 47.4355 72.707 50.359C72.3302 50.9145 72.113 51.2347 72.1243 51.2347C71.348 52.505 71.0657 53.0696 72.1243 54.481C72.507 55.0029 73.3184 55.7991 74.2458 56.7091C75.1996 57.6451 76.2761 58.7014 77.1348 59.7033C80.24 63.2319 82.6394 66.1959 83.2746 68.2425C83.8391 70.2891 82.8512 71.3477 80.734 71.3477H73.4651C71.5388 71.3477 70.5459 70.2414 68.4297 67.8837C67.5223 66.8728 66.4084 65.6318 64.926 64.1493C60.6211 59.9856 58.7157 59.4211 57.6571 59.4211C56.1751 59.4211 55.7516 59.7739 55.7516 61.8911V68.4542C55.7516 70.2185 55.1871 71.2771 50.5293 71.2771C42.837 71.2771 34.2979 66.6194 28.2993 57.939C19.2661 45.2362 16.7961 35.6384 16.7961 33.733C16.7961 32.6744 17.149 31.6864 19.2661 31.6864H26.6056C28.4404 31.6864 29.1461 32.4627 29.8519 34.5093C33.451 44.8833 39.4496 53.987 41.9196 53.987C42.837 53.987 43.2605 53.5636 43.2605 51.2347V40.5079C43.0862 37.4588 42.0248 36.1304 41.2378 35.1453C40.7497 34.5344 40.367 34.0555 40.367 33.3801C40.367 32.5333 41.0728 31.6864 42.2019 31.6864H53.6345C55.1871 31.6864 55.7516 32.5333 55.7516 34.3681V48.8353C55.7516 50.3879 56.3868 50.9525 56.8808 50.9525C57.7982 50.9525 58.5745 50.3879 60.2682 48.6942C65.4905 42.8367 69.2308 33.8036 69.2308 33.8036C69.7248 32.745 70.5717 31.757 72.4065 31.757H79.6754Z" fill="white"/>
</svg>
